<mxfile host="app.diagrams.net" modified="2024-07-06T14:31:08.674Z" agent="Mozilla/5.0 (Windows NT 10.0; Win64; x64) AppleWebKit/537.36 (KHTML, like Gecko) Chrome/126.0.0.0 Safari/537.36" version="24.6.4" etag="O1upxWl-3AJzEMzsfpR-" type="github">
  <diagram name="PÃ¡gina-1" id="OV9ODhNinOtaRQBBTTQM">
    <mxGraphModel>
      <root>
        <mxCell id="0" />
        <mxCell id="1" parent="0" />
      </root>
    </mxGraphModel>
  </diagram>
</mxfile>
